<svg id="Layer_1" data-name="Layer 1" xmlns="http://www.w3.org/2000/svg" width="463.16" height="446.09" viewBox="0 0 463.16 446.09">
  <defs>
    <style>
      .cls-1 {
        fill: #db5c3b;
      }

      .cls-2 {
        fill: #e87c42;
      }

      .cls-3 {
        fill: #ec9e47;
      }
    </style>
  </defs>
  <title>gitlab-logo-freelogovectors.net</title>
  <g>
    <path class="cls-1" d="M473.83,203.52l-.63-1.66L410.15,37.38a16.21,16.21,0,0,0-6.47-7.81A16.57,16.57,0,0,0,393.8,27a16.5,16.5,0,0,0-15.12,12.1L336.11,169.36H163.89L121.32,39.08a16.53,16.53,0,0,0-5.57-8.48,16.77,16.77,0,0,0-19.43-1,16.27,16.27,0,0,0-6.47,7.81l-63,164.49-.64,1.65A117.06,117.06,0,0,0,65,338.8c.08.05.14.11.22.17l.56.42,96,71.89,47.5,36,28.9,21.85a19.53,19.53,0,0,0,23.56,0l28.9-21.85,47.49-36L434.77,339l.26-.2a117.06,117.06,0,0,0,38.8-135.25" transform="translate(-18.42 -26.95)"/>
    <path class="cls-2" d="M473.83,203.52l-.63-1.66A213,213,0,0,0,388.44,240c-.39.29-74.95,56.68-138.44,104.67,47.14,35.65,88.17,66.63,88.17,66.63L434.77,339l.26-.2a117.06,117.06,0,0,0,38.8-135.25" transform="translate(-18.42 -26.95)"/>
    <path class="cls-3" d="M161.82,411.28l47.5,36,28.91,21.85a19.52,19.52,0,0,0,23.55,0l28.9-21.85,47.49-36s-41-31-88.17-66.63c-47.14,35.65-88.18,66.63-88.18,66.63" transform="translate(-18.42 -26.95)"/>
    <path class="cls-2" d="M111.55,240a212.74,212.74,0,0,0-84.74-38.11l-.64,1.65A117.06,117.06,0,0,0,65,338.8a1.84,1.84,0,0,1,.22.17l.56.42,96,71.89s41-31,88.18-66.63c-63.48-48-138-104.38-138.45-104.67" transform="translate(-18.42 -26.95)"/>
  </g>
</svg>
